<svg width="40" height="39" viewBox="0 0 40 39" fill="none" xmlns="http://www.w3.org/2000/svg">
<path d="M10.0688 38.4404C7.03235 38.4404 4.66008 37.3928 2.95205 35.2975C1.24403 33.1071 0.390015 29.869 0.390015 25.5833C0.390015 21.1071 1.38636 16.8214 3.37906 12.7261C5.46665 8.63091 8.40826 4.58329 12.2039 0.583294C12.2988 0.488051 12.4411 0.44043 12.6309 0.44043C12.9155 0.44043 13.1053 0.583288 13.2002 0.869004C13.39 1.05948 13.4374 1.29757 13.3426 1.58329C11.0652 4.63091 9.4995 7.58329 8.64549 10.4404C7.88636 13.2023 7.5068 16.2975 7.5068 19.7261C7.5068 22.2975 7.83892 24.2975 8.50315 25.7261C9.16739 27.1547 10.0688 28.4404 11.2075 29.5833L5.79877 30.5833C5.70388 28.9642 6.13089 27.7261 7.07979 26.869C8.12359 26.0118 9.45207 25.5833 11.0652 25.5833C13.0579 25.5833 14.5761 26.1547 15.6199 27.2975C16.7586 28.4404 17.328 30.0118 17.328 32.0118C17.328 34.1071 16.6637 35.7261 15.3353 36.869C14.1017 37.9166 12.3462 38.4404 10.0688 38.4404ZM31.9885 38.4404C28.952 38.4404 26.5798 37.3928 24.8718 35.2975C23.2586 33.1071 22.452 29.869 22.452 25.5833C22.452 21.0118 23.4484 16.6785 25.4411 12.5833C27.4338 8.48805 30.3754 4.48805 34.2659 0.583294C34.3608 0.488051 34.5031 0.44043 34.6929 0.44043C34.9776 0.44043 35.1674 0.583288 35.2623 0.869004C35.452 1.05948 35.4995 1.29757 35.4046 1.58329C33.1272 4.63091 31.5615 7.58329 30.7075 10.4404C29.9484 13.2023 29.5688 16.2975 29.5688 19.7261C29.5688 22.2975 29.8535 24.3452 30.4228 25.869C31.0871 27.2975 31.9885 28.5356 33.1272 29.5833L27.8608 30.5833C27.7659 28.9642 28.1929 27.7261 29.1418 26.869C30.0907 26.0118 31.4192 25.5833 33.1272 25.5833C35.1199 25.5833 36.6382 26.1547 37.682 27.2975C38.8207 28.4404 39.39 30.0118 39.39 32.0118C39.39 34.1071 38.7258 35.7261 37.3973 36.869C36.1637 37.9166 34.3608 38.4404 31.9885 38.4404Z" fill="#1A1A1A"/>
</svg>
