<svg width="21" height="21" viewBox="0 0 21 21" fill="none" xmlns="http://www.w3.org/2000/svg">
<g clip-path="url(#clip0_2_37)">
<path d="M20.64 10.5233C20.64 10.0345 20.4733 9.62335 20.14 9.29001C19.8067 8.95668 19.3956 8.79001 18.9067 8.79001H3.77335V3.39001C3.77335 2.94557 3.9289 2.56779 4.24001 2.25668C4.46224 2.03446 4.71779 1.90112 5.00668 1.85668C5.29557 1.81223 5.59557 1.83446 5.90668 1.92335C5.50668 2.54557 5.35113 3.23446 5.44001 3.99001C5.5289 4.74557 5.84001 5.39001 6.37335 5.92335L6.50668 6.12335C6.64002 6.21223 6.78446 6.25668 6.94001 6.25668C7.09557 6.25668 7.21779 6.21223 7.30668 6.12335L11.1067 2.32335C11.24 2.19001 11.3067 2.04557 11.3067 1.89001C11.3067 1.73446 11.24 1.59001 11.1067 1.45668L10.9733 1.32335C10.3956 0.745567 9.69557 0.434456 8.87335 0.390011C8.05113 0.345568 7.3289 0.567789 6.70668 1.05668C6.17335 0.745567 5.59557 0.623344 4.97335 0.690012C4.35113 0.756678 3.81779 1.01223 3.37335 1.45668C2.84001 1.99001 2.57335 2.63446 2.57335 3.39001V8.79001H2.37335C1.88446 8.79001 1.47335 8.95668 1.14001 9.29001C0.806681 9.62335 0.640015 10.0345 0.640015 10.5233C0.640015 10.9233 0.751126 11.2678 0.973348 11.5567C1.19557 11.8456 1.46224 12.0567 1.77335 12.19V13.4567C1.77335 14.5233 2.06224 15.5011 2.64001 16.39C3.21779 17.2789 3.95113 17.9678 4.84001 18.4567L4.30668 19.5233C4.21779 19.7011 4.20668 19.8567 4.27335 19.99C4.34001 20.1233 4.44001 20.2345 4.57335 20.3233C4.70668 20.4122 4.85113 20.4233 5.00668 20.3567C5.16224 20.29 5.28446 20.19 5.37335 20.0567L5.97335 18.8567C6.41779 18.9456 6.88446 18.99 7.37335 18.99H13.9067C14.3956 18.99 14.8622 18.9456 15.3067 18.8567L15.9067 20.0567C15.9956 20.19 16.1178 20.29 16.2733 20.3567C16.4289 20.4233 16.5733 20.4122 16.7067 20.3233C16.84 20.2345 16.94 20.1233 17.0067 19.99C17.0733 19.8567 17.0622 19.7011 16.9733 19.5233L16.44 18.4567C17.3289 17.9678 18.0622 17.2789 18.64 16.39C19.2178 15.5011 19.5067 14.5233 19.5067 13.4567V12.19C19.8178 12.0567 20.0845 11.8456 20.3067 11.5567C20.5289 11.2678 20.64 10.9233 20.64 10.5233ZM9.84002 1.92335L6.97335 4.85668C6.66224 4.41223 6.5289 3.94557 6.57335 3.45668C6.61779 2.96779 6.81779 2.54557 7.17335 2.19001C7.5289 1.83446 7.96224 1.63446 8.47335 1.59001C8.98446 1.54557 9.44001 1.65668 9.84002 1.92335ZM2.37335 9.99001H18.9067C19.04 9.99001 19.1622 10.0456 19.2733 10.1567C19.3845 10.2678 19.44 10.4011 19.44 10.5567C19.44 10.7122 19.3845 10.8456 19.2733 10.9567C19.1622 11.0678 19.04 11.1233 18.9067 11.1233H2.37335C2.24001 11.1233 2.11779 11.0678 2.00668 10.9567C1.89557 10.8456 1.84001 10.7122 1.84001 10.5567C1.84001 10.4011 1.89557 10.2678 2.00668 10.1567C2.11779 10.0456 2.24001 9.99001 2.37335 9.99001ZM18.3067 13.4567C18.3067 14.2567 18.1067 14.99 17.7067 15.6567C17.3067 16.3233 16.7733 16.8567 16.1067 17.2567C15.44 17.6567 14.7067 17.8567 13.9067 17.8567H7.37335C6.57335 17.8567 5.84001 17.6567 5.17335 17.2567C4.50668 16.8567 3.97335 16.3233 3.57335 15.6567C3.17335 14.99 2.97335 14.2567 2.97335 13.4567V12.3233H18.3067V13.4567ZM9.10668 6.32335C9.10668 6.50112 9.16224 6.64557 9.27335 6.75668C9.38446 6.86779 9.51779 6.92335 9.67335 6.92335C9.8289 6.92335 9.96224 6.86779 10.0733 6.75668C10.1845 6.64557 10.24 6.50112 10.24 6.32335C10.24 6.14557 10.1845 6.00112 10.0733 5.89001C9.96224 5.7789 9.8289 5.72334 9.67335 5.72334C9.51779 5.72334 9.38446 5.7789 9.27335 5.89001C9.16224 6.00112 9.10668 6.14557 9.10668 6.32335ZM10.7733 4.65668C10.7733 4.83446 10.8289 4.9789 10.94 5.09001C11.0511 5.20112 11.1845 5.25668 11.34 5.25668C11.4956 5.25668 11.6289 5.20112 11.74 5.09001C11.8511 4.9789 11.9067 4.83446 11.9067 4.65668C11.9067 4.4789 11.8511 4.33446 11.74 4.22334C11.6289 4.11223 11.4956 4.05668 11.34 4.05668C11.1845 4.05668 11.0511 4.11223 10.94 4.22334C10.8289 4.33446 10.7733 4.4789 10.7733 4.65668ZM11.1733 6.72334C11.1733 6.85668 11.2289 6.99001 11.34 7.12335C11.4511 7.25668 11.5845 7.32335 11.74 7.32335C11.8956 7.32335 12.0289 7.25668 12.14 7.12335C12.2511 6.99001 12.3067 6.84557 12.3067 6.69001C12.3067 6.53446 12.2511 6.40112 12.14 6.29001C12.0289 6.1789 11.8956 6.12335 11.74 6.12335C11.5845 6.12335 11.4511 6.1789 11.34 6.29001C11.2289 6.40112 11.1733 6.54557 11.1733 6.72334Z" fill="#1A1A1A"/>
</g>
<defs>
<clipPath id="clip0_2_37">
<rect width="20" height="20" fill="white" transform="matrix(1 0 0 -1 0.640015 20.39)"/>
</clipPath>
</defs>
</svg>
