<svg width="51" height="51" viewBox="0 0 51 51" fill="none" xmlns="http://www.w3.org/2000/svg">
<g clip-path="url(#clip0_2_154)">
<path d="M29.0733 19.9134C27.9622 19.9134 26.99 20.3301 26.1566 21.1634C25.3233 21.9967 24.9066 22.969 24.9066 24.0801C24.9066 25.1912 25.3233 26.1634 26.1566 26.9967C26.99 27.8301 27.9622 28.2467 29.0733 28.2467C30.1844 28.2467 31.1566 27.8301 31.99 26.9967C32.8233 26.1634 33.24 25.1912 33.24 24.0801C33.24 22.969 32.8233 21.9967 31.99 21.1634C31.1566 20.3301 30.1844 19.9134 29.0733 19.9134ZM29.0733 26.2467C28.5178 26.2467 28.0178 26.0523 27.5733 25.6634C27.1289 25.2745 26.9066 24.7745 26.9066 24.1634C26.9066 23.5523 27.1289 23.0245 27.5733 22.5801C28.0178 22.1356 28.5455 21.9134 29.1566 21.9134C29.7678 21.9134 30.2678 22.1356 30.6566 22.5801C31.0455 23.0245 31.24 23.5523 31.24 24.1634C31.24 24.7745 31.0455 25.2745 30.6566 25.6634C30.2678 26.0523 29.74 26.2467 29.0733 26.2467ZM47.0733 29.2467L50.4066 25.9134C50.6289 25.6912 50.74 25.469 50.74 25.2467C50.74 25.0245 50.6289 24.8023 50.4066 24.5801L44.9066 18.9134V9.24674C44.9066 9.02452 44.7955 8.8023 44.5733 8.58008C44.3511 8.35785 44.1289 8.24674 43.9066 8.24674H38.4066C38.1844 8.24674 37.9622 8.35785 37.74 8.58008C37.5178 8.8023 37.4066 9.02452 37.4066 9.24674V11.5801L31.4066 5.58008C30.74 4.91341 29.9622 4.58008 29.0733 4.58008C28.1844 4.58008 27.4066 4.91341 26.74 5.58008L23.4066 8.91341C22.8511 6.35785 21.5178 4.24674 19.4066 2.58008C17.2955 0.91341 14.9066 0.0800781 12.24 0.0800781C10.7955 0.0800781 9.40665 0.357853 8.07331 0.91341C7.85109 0.91341 7.68442 1.0523 7.57331 1.33008C7.4622 1.60785 7.4622 1.85785 7.57331 2.08008C7.68442 2.3023 7.85109 2.46897 8.07331 2.58008C8.29553 2.69119 8.57331 2.74674 8.90665 2.74674C9.90665 2.3023 11.0178 2.08008 12.24 2.08008C14.0178 2.08008 15.6289 2.49674 17.0733 3.33008C18.5178 4.16341 19.6844 5.33008 20.5733 6.83008C21.4622 8.33008 21.9066 9.94119 21.9066 11.6634C21.9066 13.3856 21.4622 14.969 20.5733 16.4134C19.6844 17.8579 18.5178 19.0245 17.0733 19.9134C15.6289 20.8023 14.0455 21.2467 12.3233 21.2467C10.6011 21.2467 8.98998 20.8023 7.48998 19.9134C5.98998 19.0245 4.82331 17.8579 3.98998 16.4134C3.15665 14.969 2.73998 13.3579 2.73998 11.5801C2.73998 10.3579 2.90665 9.24674 3.23998 8.24674C3.35109 7.91341 3.35109 7.63563 3.23998 7.41341C3.12887 7.19119 2.9622 7.02452 2.73998 6.91341C2.51776 6.8023 2.26776 6.8023 1.98998 6.91341C1.7122 7.02452 1.57331 7.19119 1.57331 7.41341C1.01776 8.74674 0.739979 10.1356 0.739979 11.5801C0.739979 14.2467 1.57331 16.6356 3.23998 18.7467C4.90665 20.8579 7.01776 22.1912 9.57331 22.7467L7.73998 24.5801C7.51776 24.8023 7.40665 25.0245 7.40665 25.2467C7.40665 25.469 7.51776 25.6912 7.73998 25.9134L11.0733 29.2467C11.1844 29.3579 11.3511 29.469 11.5733 29.5801V44.2467H9.73998C9.51776 44.2467 9.29553 44.3301 9.07331 44.4967C8.85109 44.6634 8.73998 44.9134 8.73998 45.2467V49.0801C8.73998 49.4134 8.85109 49.6634 9.07331 49.8301C9.29553 49.9967 9.51776 50.0801 9.73998 50.0801H48.4066C48.74 50.0801 48.99 49.9967 49.1566 49.8301C49.3233 49.6634 49.4066 49.4134 49.4066 49.0801V45.2467C49.4066 44.9134 49.3233 44.6634 49.1566 44.4967C48.99 44.3301 48.74 44.2467 48.4066 44.2467H46.74V29.5801C46.8511 29.469 46.9622 29.3579 47.0733 29.2467ZM39.4066 10.2467H42.9066V17.0801L39.4066 13.5801V10.2467ZM28.0733 6.91341C28.4066 6.69119 28.74 6.58008 29.0733 6.58008C29.4066 6.58008 29.74 6.69119 30.0733 6.91341L48.4066 25.2467L46.4066 27.2467L29.74 10.5801C29.6289 10.3579 29.4344 10.2467 29.1566 10.2467C28.8789 10.2467 28.6289 10.3579 28.4066 10.5801L22.9066 15.9134C23.4622 14.5801 23.74 13.1356 23.74 11.5801V11.2467L28.0733 6.91341ZM9.73998 25.2467L11.9066 23.0801H12.24C13.7955 23.0801 15.24 22.8023 16.5733 22.2467L11.74 27.2467L9.73998 25.2467ZM47.4066 48.0801H10.74V46.2467H47.4066V48.0801ZM32.74 44.2467H25.4066V32.7467H32.74V44.2467ZM34.74 44.2467V31.7467C34.74 31.4134 34.6566 31.1634 34.49 30.9967C34.3233 30.8301 34.0733 30.7467 33.74 30.7467H24.4066C24.1844 30.7467 23.9622 30.8301 23.74 30.9967C23.5178 31.1634 23.4066 31.4134 23.4066 31.7467V44.2467H13.4066V28.2467L29.0733 12.5801L44.74 28.2467V44.2467H34.74ZM12.24 14.9134C11.7955 14.9134 11.4622 14.8856 11.24 14.8301C11.0178 14.7745 10.7955 14.6634 10.5733 14.4967C10.3511 14.3301 10.1011 14.2745 9.82331 14.3301C9.54554 14.3856 9.32331 14.5245 9.15665 14.7467C8.98998 14.969 8.93442 15.1912 8.98998 15.4134C9.04553 15.6356 9.18442 15.8579 9.40665 16.0801C10.0733 16.4134 10.6844 16.6356 11.24 16.7467V17.0801C11.24 17.3023 11.3511 17.5245 11.5733 17.7467C11.7955 17.969 12.0455 18.0801 12.3233 18.0801C12.6011 18.0801 12.8233 17.969 12.99 17.7467C13.1566 17.5245 13.24 17.3023 13.24 17.0801V16.5801C13.9066 16.469 14.4344 16.1634 14.8233 15.6634C15.2122 15.1634 15.4622 14.5801 15.5733 13.9134C15.6844 13.2467 15.5455 12.6079 15.1566 11.9967C14.7678 11.3856 14.1844 10.9134 13.4066 10.5801C12.4066 10.2467 11.74 9.91341 11.4066 9.58008C11.1844 9.46897 11.1289 9.24674 11.24 8.91341C11.3511 8.58008 11.5178 8.41341 11.74 8.41341C12.2955 8.19119 12.8511 8.24674 13.4066 8.58008C13.6289 8.8023 13.8789 8.88563 14.1566 8.83008C14.4344 8.77452 14.6289 8.63563 14.74 8.41341C14.8511 8.19119 14.9066 7.94119 14.9066 7.66341C14.9066 7.38563 14.7678 7.16341 14.49 6.99674C14.2122 6.83008 13.7955 6.63563 13.24 6.41341V6.08008C13.24 5.85785 13.1566 5.66341 12.99 5.49674C12.8233 5.33008 12.6011 5.24674 12.3233 5.24674C12.0455 5.24674 11.7955 5.33008 11.5733 5.49674C11.3511 5.66341 11.24 5.85785 11.24 6.08008V6.41341C10.7955 6.63563 10.3789 6.94119 9.98998 7.33008C9.60109 7.71897 9.35109 8.19119 9.23998 8.74674C9.12887 9.74674 9.40665 10.5801 10.0733 11.2467C10.6289 11.5801 11.5733 11.969 12.9066 12.4134C13.4622 12.6356 13.6844 13.0801 13.5733 13.7467C13.5733 13.969 13.4344 14.219 13.1566 14.4967C12.8789 14.7745 12.5733 14.9134 12.24 14.9134ZM3.90665 4.08008C3.90665 4.41341 3.98998 4.66341 4.15665 4.83008C4.32331 4.99674 4.54553 5.08008 4.82331 5.08008C5.10109 5.08008 5.32331 4.99674 5.48998 4.83008C5.65665 4.66341 5.73998 4.44119 5.73998 4.16341C5.73998 3.88563 5.65665 3.66341 5.48998 3.49674C5.32331 3.33008 5.10109 3.24674 4.82331 3.24674C4.54553 3.24674 4.32331 3.33008 4.15665 3.49674C3.98998 3.66341 3.90665 3.85785 3.90665 4.08008Z" fill="#1A1A1A"/>
</g>
<defs>
<clipPath id="clip0_2_154">
<rect width="50.02" height="50" fill="white" transform="matrix(1 0 0 -1 0.72998 50.0801)"/>
</clipPath>
</defs>
</svg>
