<svg width="51" height="51" viewBox="0 0 51 51" fill="none" xmlns="http://www.w3.org/2000/svg">
<g clip-path="url(#clip0_2_158)">
<path d="M4.40666 6.74674C4.62888 6.74674 4.8511 6.69119 5.07332 6.58008L6.73999 4.91341C6.8511 4.69119 6.90666 4.46897 6.90666 4.24674C6.90666 4.02452 6.82332 3.83008 6.65666 3.66341C6.48999 3.49674 6.29555 3.41341 6.07332 3.41341C5.8511 3.41341 5.62888 3.46897 5.40666 3.58008L3.73999 5.24674C3.51777 5.58008 3.48999 5.91341 3.65666 6.24674C3.82332 6.58008 4.07332 6.74674 4.40666 6.74674ZM4.40666 10.9134C4.62888 10.9134 4.8511 10.8579 5.07332 10.7467L10.9067 4.91341C11.1289 4.69119 11.1844 4.41341 11.0733 4.08008C10.9622 3.74674 10.74 3.52452 10.4067 3.41341C10.0733 3.3023 9.79555 3.35785 9.57332 3.58008L3.73999 9.41341C3.51777 9.74674 3.48999 10.0801 3.65666 10.4134C3.82332 10.7467 4.07332 10.9134 4.40666 10.9134ZM46.0733 0.0800781H4.40666C3.29555 0.0800781 2.32332 0.496742 1.48999 1.33008C0.656657 2.16341 0.23999 3.13563 0.23999 4.24674V37.5801C0.23999 38.6912 0.656657 39.6634 1.48999 40.4967C2.32332 41.3301 3.29555 41.7467 4.40666 41.7467H18.5733V44.2467H16.0733C15.1844 44.2467 14.4067 44.5801 13.74 45.2467C13.0733 45.9134 12.74 46.6912 12.74 47.5801V48.4134C12.74 48.8579 12.9067 49.2467 13.24 49.5801C13.5733 49.9134 13.9622 50.0801 14.4067 50.0801H36.0733C36.5178 50.0801 36.9067 49.9134 37.24 49.5801C37.5733 49.2467 37.74 48.8579 37.74 48.4134V47.5801C37.74 46.6912 37.4067 45.9134 36.74 45.2467C36.0733 44.5801 35.2955 44.2467 34.4067 44.2467H31.9067V41.7467H46.0733C47.1844 41.7467 48.1567 41.3301 48.99 40.4967C49.8233 39.6634 50.24 38.6912 50.24 37.5801V4.24674C50.24 3.13563 49.8233 2.16341 48.99 1.33008C48.1567 0.496742 47.1844 0.0800781 46.0733 0.0800781ZM48.5733 33.4134H41.9067V18.4134H48.5733V33.4134ZM48.5733 16.7467H41.9067V10.0801H48.5733V16.7467ZM48.5733 4.24674V8.41341H41.9067V1.74674H46.0733C46.74 1.74674 47.3233 1.99674 47.8233 2.49674C48.3233 2.99674 48.5733 3.58008 48.5733 4.24674ZM4.40666 1.74674H40.24V33.4134H1.90666V4.24674C1.90666 3.58008 2.15666 2.99674 2.65666 2.49674C3.15666 1.99674 3.73999 1.74674 4.40666 1.74674ZM36.0733 47.5801V48.4134H14.4067V47.5801C14.4067 47.1356 14.5733 46.7467 14.9067 46.4134C15.24 46.0801 15.6289 45.9134 16.0733 45.9134H34.4067C34.8511 45.9134 35.24 46.0801 35.5733 46.4134C35.9067 46.7467 36.0733 47.1356 36.0733 47.5801ZM30.24 44.2467H20.24V41.7467H30.24V44.2467ZM46.0733 40.0801H4.40666C3.73999 40.0801 3.15666 39.8301 2.65666 39.3301C2.15666 38.8301 1.90666 38.2467 1.90666 37.5801V35.0801H48.5733V37.5801C48.5733 38.2467 48.3233 38.8301 47.8233 39.3301C47.3233 39.8301 46.74 40.0801 46.0733 40.0801ZM27.74 36.7467H22.74C22.5178 36.7467 22.3233 36.8301 22.1567 36.9967C21.99 37.1634 21.9067 37.3579 21.9067 37.5801C21.9067 37.8023 21.99 37.9967 22.1567 38.1634C22.3233 38.3301 22.5178 38.4134 22.74 38.4134H27.74C27.9622 38.4134 28.1567 38.3301 28.3233 38.1634C28.49 37.9967 28.5733 37.8023 28.5733 37.5801C28.5733 37.3579 28.49 37.1634 28.3233 36.9967C28.1567 36.8301 27.9622 36.7467 27.74 36.7467ZM42.9067 6.58008C43.1289 6.69119 43.3511 6.74674 43.5733 6.74674C43.7955 6.74674 44.0178 6.69119 44.24 6.58008L45.24 5.41341L46.24 6.58008C46.4622 6.69119 46.6844 6.74674 46.9067 6.74674C47.1289 6.74674 47.3233 6.66341 47.49 6.49674C47.6567 6.33008 47.74 6.13563 47.74 5.91341C47.74 5.69119 47.6844 5.46897 47.5733 5.24674L45.9067 3.58008C45.6844 3.46897 45.4622 3.41341 45.24 3.41341C45.0178 3.41341 44.7955 3.46897 44.5733 3.58008L42.9067 5.24674C42.7955 5.46897 42.74 5.69119 42.74 5.91341C42.74 6.13563 42.7955 6.35785 42.9067 6.58008ZM44.5733 31.5801C44.7955 31.6912 45.0178 31.7467 45.24 31.7467C45.4622 31.7467 45.6844 31.6912 45.9067 31.5801L47.5733 29.9134C47.6844 29.6912 47.74 29.469 47.74 29.2467C47.74 29.0245 47.6567 28.8301 47.49 28.6634C47.3233 28.4967 47.1289 28.4134 46.9067 28.4134C46.6844 28.4134 46.4622 28.469 46.24 28.5801L45.24 29.7467L44.24 28.5801C44.0178 28.469 43.7955 28.4134 43.5733 28.4134C43.3511 28.4134 43.1567 28.4967 42.99 28.6634C42.8233 28.8301 42.74 29.0245 42.74 29.2467C42.74 29.469 42.7955 29.6912 42.9067 29.9134L44.5733 31.5801ZM43.5733 14.2467H46.9067C47.1289 14.2467 47.3233 14.1634 47.49 13.9967C47.6567 13.8301 47.74 13.6356 47.74 13.4134C47.74 13.1912 47.6567 12.9967 47.49 12.8301C47.3233 12.6634 47.1289 12.5801 46.9067 12.5801H43.5733C43.3511 12.5801 43.1567 12.6634 42.99 12.8301C42.8233 12.9967 42.74 13.1912 42.74 13.4134C42.74 13.6356 42.8233 13.8301 42.99 13.9967C43.1567 14.1634 43.3511 14.2467 43.5733 14.2467ZM4.57332 15.5801C4.79555 16.3579 5.29555 16.7467 6.07332 16.7467V25.0801C6.07332 25.5245 6.23999 25.9134 6.57332 26.2467C6.90666 26.5801 7.29555 26.7467 7.73999 26.7467H21.0733C21.5178 26.7467 21.9067 26.5801 22.24 26.2467C22.5733 25.9134 22.74 25.5245 22.74 25.0801V16.7467C23.5178 16.7467 24.0178 16.3579 24.24 15.5801C24.3511 15.3579 24.3789 15.0523 24.3233 14.6634C24.2678 14.2745 24.1289 13.969 23.9067 13.7467L22.74 12.7467V8.41341C22.74 7.96897 22.5733 7.58008 22.24 7.24674C21.9067 6.91341 21.5178 6.74674 21.0733 6.74674H19.4067C18.9622 6.74674 18.5733 6.88563 18.24 7.16341C17.9067 7.44119 17.74 7.8023 17.74 8.24674L15.5733 6.41341C15.24 6.08008 14.8511 5.91341 14.4067 5.91341C13.9622 5.91341 13.5733 6.08008 13.24 6.41341L4.90666 13.7467C4.68443 13.969 4.54555 14.2745 4.48999 14.6634C4.43443 15.0523 4.46221 15.3579 4.57332 15.5801ZM13.5733 25.0801V22.5801C13.5733 22.3579 13.6567 22.1634 13.8233 21.9967C13.99 21.8301 14.1844 21.7467 14.4067 21.7467C14.6289 21.7467 14.8233 21.8301 14.99 21.9967C15.1567 22.1634 15.24 22.3579 15.24 22.5801V25.0801H13.5733ZM16.9067 25.0801V22.5801C16.9067 21.9134 16.6567 21.3301 16.1567 20.8301C15.6567 20.3301 15.0733 20.0801 14.4067 20.0801C13.74 20.0801 13.1567 20.3301 12.6567 20.8301C12.1567 21.3301 11.9067 21.9134 11.9067 22.5801V25.0801H7.73999V16.7467H21.0733V25.0801H16.9067ZM19.4067 8.41341H21.0733V11.2467L19.4067 9.74674V8.41341ZM14.4067 7.58008L22.74 15.0801H6.07332L14.4067 7.58008ZM26.9067 21.7467H36.9067C37.1289 21.7467 37.3233 21.6634 37.49 21.4967C37.6567 21.3301 37.74 21.1356 37.74 20.9134C37.74 20.6912 37.6567 20.4967 37.49 20.3301C37.3233 20.1634 37.1289 20.0801 36.9067 20.0801H26.9067C26.6844 20.0801 26.49 20.1634 26.3233 20.3301C26.1567 20.4967 26.0733 20.6912 26.0733 20.9134C26.0733 21.1356 26.1567 21.3301 26.3233 21.4967C26.49 21.6634 26.6844 21.7467 26.9067 21.7467ZM26.9067 25.9134H36.9067C37.1289 25.9134 37.3233 25.8301 37.49 25.6634C37.6567 25.4967 37.74 25.3023 37.74 25.0801C37.74 24.8579 37.6567 24.6634 37.49 24.4967C37.3233 24.3301 37.1289 24.2467 36.9067 24.2467H26.9067C26.6844 24.2467 26.49 24.3301 26.3233 24.4967C26.1567 24.6634 26.0733 24.8579 26.0733 25.0801C26.0733 25.3023 26.1567 25.4967 26.3233 25.6634C26.49 25.8301 26.6844 25.9134 26.9067 25.9134ZM26.9067 30.0801H31.9067C32.1289 30.0801 32.3233 29.9967 32.49 29.8301C32.6567 29.6634 32.74 29.469 32.74 29.2467C32.74 29.0245 32.6567 28.8301 32.49 28.6634C32.3233 28.4967 32.1289 28.4134 31.9067 28.4134H26.9067C26.6844 28.4134 26.49 28.4967 26.3233 28.6634C26.1567 28.8301 26.0733 29.0245 26.0733 29.2467C26.0733 29.469 26.1567 29.6634 26.3233 29.8301C26.49 29.9967 26.6844 30.0801 26.9067 30.0801ZM29.4067 13.4134C29.4067 13.1912 29.3233 12.9967 29.1567 12.8301C28.99 12.6634 28.7955 12.5801 28.5733 12.5801C28.3511 12.5801 28.1567 12.6634 27.99 12.8301C27.8233 12.9967 27.74 13.1912 27.74 13.4134C27.74 14.1912 28.0455 14.8856 28.6567 15.4967C29.2678 16.1079 30.0733 16.5245 31.0733 16.7467V17.5801C31.0733 17.8023 31.1567 17.9967 31.3233 18.1634C31.49 18.3301 31.6844 18.4134 31.9067 18.4134C32.1289 18.4134 32.3233 18.3301 32.49 18.1634C32.6567 17.9967 32.74 17.8023 32.74 17.5801V16.7467C33.74 16.5245 34.5455 16.1079 35.1567 15.4967C35.7678 14.8856 36.0733 14.1912 36.0733 13.4134C36.0733 12.6356 35.7678 11.9412 35.1567 11.3301C34.5455 10.719 33.74 10.3023 32.74 10.0801V6.91341C33.1844 7.02452 33.5733 7.21897 33.9067 7.49674C34.24 7.77452 34.4067 8.0523 34.4067 8.33008C34.4067 8.60785 34.49 8.83008 34.6567 8.99674C34.8233 9.16341 35.0178 9.24674 35.24 9.24674C35.4622 9.24674 35.6567 9.16341 35.8233 8.99674C35.99 8.83008 36.0733 8.63563 36.0733 8.41341C36.0733 7.63563 35.7678 6.94119 35.1567 6.33008C34.5455 5.71897 33.74 5.3023 32.74 5.08008V4.24674C32.74 4.02452 32.6567 3.83008 32.49 3.66341C32.3233 3.49674 32.1289 3.41341 31.9067 3.41341C31.6844 3.41341 31.49 3.49674 31.3233 3.66341C31.1567 3.83008 31.0733 4.02452 31.0733 4.24674V5.08008C30.0733 5.3023 29.2678 5.71897 28.6567 6.33008C28.0455 6.94119 27.74 7.63563 27.74 8.41341C27.74 9.19119 28.0455 9.88563 28.6567 10.4967C29.2678 11.1079 30.0733 11.5245 31.0733 11.7467V14.9134C30.6289 14.8023 30.24 14.6079 29.9067 14.3301C29.5733 14.0523 29.4067 13.7467 29.4067 13.4134ZM34.4067 13.4134C34.4067 13.7467 34.24 14.0523 33.9067 14.3301C33.5733 14.6079 33.1844 14.8023 32.74 14.9134V11.9134C33.1844 12.0245 33.5733 12.219 33.9067 12.4967C34.24 12.7745 34.4067 13.0801 34.4067 13.4134ZM29.4067 8.41341C29.4067 8.08008 29.5733 7.77452 29.9067 7.49674C30.24 7.21897 30.6289 7.02452 31.0733 6.91341V9.91341C30.6289 9.8023 30.24 9.60785 29.9067 9.33008C29.5733 9.0523 29.4067 8.74674 29.4067 8.41341ZM10.24 29.2467C10.24 29.469 10.3233 29.6634 10.49 29.8301C10.6567 29.9967 10.8511 30.0801 11.0733 30.0801C11.2955 30.0801 11.49 29.9967 11.6567 29.8301C11.8233 29.6634 11.9067 29.469 11.9067 29.2467C11.9067 29.0245 11.8233 28.8301 11.6567 28.6634C11.49 28.4967 11.2955 28.4134 11.0733 28.4134C10.8511 28.4134 10.6567 28.4967 10.49 28.6634C10.3233 28.8301 10.24 29.0245 10.24 29.2467ZM13.5733 29.2467C13.5733 29.469 13.6567 29.6634 13.8233 29.8301C13.99 29.9967 14.1844 30.0801 14.4067 30.0801C14.6289 30.0801 14.8233 29.9967 14.99 29.8301C15.1567 29.6634 15.24 29.469 15.24 29.2467C15.24 29.0245 15.1567 28.8301 14.99 28.6634C14.8233 28.4967 14.6289 28.4134 14.4067 28.4134C14.1844 28.4134 13.99 28.4967 13.8233 28.6634C13.6567 28.8301 13.5733 29.0245 13.5733 29.2467ZM16.9067 29.2467C16.9067 29.469 16.99 29.6634 17.1567 29.8301C17.3233 29.9967 17.5178 30.0801 17.74 30.0801C17.9622 30.0801 18.1567 29.9967 18.3233 29.8301C18.49 29.6634 18.5733 29.469 18.5733 29.2467C18.5733 29.0245 18.49 28.8301 18.3233 28.6634C18.1567 28.4967 17.9622 28.4134 17.74 28.4134C17.5178 28.4134 17.3233 28.4967 17.1567 28.6634C16.99 28.8301 16.9067 29.0245 16.9067 29.2467Z" fill="#1A1A1A"/>
</g>
<defs>
<clipPath id="clip0_2_158">
<rect width="50.02" height="50" fill="white" transform="matrix(1 0 0 -1 0.22998 50.0801)"/>
</clipPath>
</defs>
</svg>
