<svg width="51" height="51" viewBox="0 0 51 51" fill="none" xmlns="http://www.w3.org/2000/svg">
<g clip-path="url(#clip0_2_146)">
<path d="M25.74 45.2468H10.24C9.35108 45.2468 8.62886 44.9413 8.0733 44.3302C7.51775 43.7191 7.23997 43.0246 7.23997 42.2468V21.4135L22.9066 7.58017C23.6844 6.91351 24.6289 6.58017 25.74 6.58017C26.8511 6.58017 27.7955 6.91351 28.5733 7.58017L48.4066 25.0802C48.6289 25.3024 48.9066 25.3857 49.24 25.3302C49.5733 25.2746 49.8511 25.1357 50.0733 24.9135C50.2955 24.6913 50.3789 24.4135 50.3233 24.0802C50.2677 23.7468 50.1289 23.4691 49.9066 23.2468L46.5733 20.4135V8.58017C46.5733 6.91351 45.9622 5.46906 44.74 4.24684C43.5177 3.02462 42.0733 2.44128 40.4066 2.49684C38.74 2.55239 37.3233 3.16351 36.1566 4.33017C34.99 5.49684 34.3511 6.91351 34.24 8.58017V9.58017L30.0733 5.91351C28.8511 4.80239 27.4066 4.24684 25.74 4.24684C24.0733 4.24684 22.6289 4.80239 21.4066 5.91351L1.5733 23.2468C1.23997 23.4691 1.0733 23.7468 1.0733 24.0802C1.0733 24.4135 1.18441 24.6913 1.40664 24.9135C1.62886 25.1357 1.90664 25.2746 2.23997 25.3302C2.5733 25.3857 2.85108 25.3024 3.0733 25.0802L4.90664 23.5802V42.2468C4.90664 43.6913 5.43441 44.9413 6.48997 45.9968C7.54553 47.0524 8.79553 47.5802 10.24 47.5802H25.74C26.0733 47.5802 26.3511 47.4691 26.5733 47.2468C26.7955 47.0246 26.9066 46.7468 26.9066 46.4135C26.9066 46.0802 26.7955 45.8024 26.5733 45.5802C26.3511 45.358 26.0733 45.2468 25.74 45.2468ZM36.5733 8.58017C36.6844 7.46906 37.1011 6.55239 37.8233 5.83017C38.5455 5.10795 39.4344 4.77462 40.49 4.83017C41.5455 4.88573 42.4344 5.27462 43.1566 5.99684C43.8789 6.71906 44.24 7.58017 44.24 8.58017V18.2468L36.5733 11.5802V8.58017ZM25.74 14.2468C24.1844 14.2468 22.8511 14.8024 21.74 15.9135C20.6289 17.0246 20.0733 18.358 20.0733 19.9135C20.0733 21.4691 20.6289 22.8024 21.74 23.9135C22.8511 25.0246 24.1844 25.5802 25.74 25.5802C27.2955 25.5802 28.6289 25.0246 29.74 23.9135C30.8511 22.8024 31.4066 21.4691 31.4066 19.9135C31.4066 18.358 30.8511 17.0246 29.74 15.9135C28.6289 14.8024 27.2955 14.2468 25.74 14.2468ZM29.0733 19.9135C29.0733 20.9135 28.74 21.7191 28.0733 22.3302C27.4066 22.9413 26.6289 23.2468 25.74 23.2468C24.8511 23.2468 24.0733 22.9413 23.4066 22.3302C22.74 21.7191 22.4066 20.9413 22.4066 19.9968C22.4066 19.0524 22.74 18.2468 23.4066 17.5802C24.0733 16.9135 24.8511 16.5802 25.74 16.5802C26.6289 16.5802 27.4066 16.9135 28.0733 17.5802C28.74 18.2468 29.0733 19.0246 29.0733 19.9135ZM50.0733 45.7468L46.0733 41.5802C47.0733 40.1357 47.5733 38.5246 47.5733 36.7468C47.5733 34.5246 46.7677 32.6357 45.1566 31.0802C43.5455 29.5246 41.6289 28.7468 39.4066 28.7468C37.1844 28.7468 35.2677 29.5246 33.6566 31.0802C32.0455 32.6357 31.24 34.5524 31.24 36.8302C31.24 39.108 32.0455 41.0246 33.6566 42.5802C35.2677 44.1357 37.1844 44.9135 39.4066 44.9135C41.2955 44.9135 42.9622 44.358 44.4066 43.2468L48.24 47.2468C48.4622 47.4691 48.74 47.608 49.0733 47.6635C49.4066 47.7191 49.7122 47.6357 49.99 47.4135C50.2677 47.1913 50.4066 46.9135 50.4066 46.5802C50.4066 46.2468 50.2955 45.9691 50.0733 45.7468ZM39.4066 42.5802C37.8511 42.5802 36.49 42.0246 35.3233 40.9135C34.1566 39.8024 33.5733 38.4413 33.5733 36.8302C33.5733 35.2191 34.1566 33.858 35.3233 32.7468C36.49 31.6357 37.8789 31.0802 39.49 31.0802C41.1011 31.0802 42.4622 31.6357 43.5733 32.7468C44.6844 33.858 45.24 35.2191 45.24 36.8302C45.24 38.4413 44.6844 39.8024 43.5733 40.9135C42.4622 42.0246 41.0733 42.5802 39.4066 42.5802Z" fill="#1A1A1A"/>
</g>
<defs>
<clipPath id="clip0_2_146">
<rect width="50.02" height="50" fill="white" transform="matrix(1 0 0 -1 0.72998 50.0801)"/>
</clipPath>
</defs>
</svg>
